USFL
nRows=452
nColumns=2
inDegrees=yes
endheader
time	tib_ant_r	
5.92137	 49.586523	
5.95464	 49.576768	
5.9879	 49.574101	
6.02117	 49.575653	
6.05444	 49.578595	
6.0877	 49.579808	
6.12097	 49.578055	
6.15423	 49.578764	
6.1875	 49.578700	
6.22077	 49.574608	
6.25403	 49.580001	
6.2873	 49.570302	
6.32056	 49.564747	
6.35383	 49.568388	
6.3871	 49.561050	
6.42036	 49.559530	
6.45363	 49.542904	
6.4869	 49.544830	
6.52016	 49.556670	
6.55343	 49.552566	
6.58669	 49.552570	
6.61996	 49.566523	
6.65323	 49.551644	
6.68649	 49.544467	
6.71976	 49.553320	
6.75302	 49.556255	
6.78629	 49.553185	
6.81956	 49.546139	
6.85282	 49.544165	
6.88609	 49.534008	
6.91935	 49.537788	
6.95262	 49.546330	
6.98589	 49.539383	
7.01915	 49.548847	
7.05242	 49.551530	
7.08569	 49.541591	
7.11895	 49.547866	
7.15222	 49.547488	
7.18548	 49.556470	
7.21875	 49.558760	
7.25202	 49.555744	
7.28528	 49.550170	
7.31855	 49.547332	
7.35181	 49.549295	
7.38508	 49.551722	
7.41835	 49.552006	
7.45161	 49.554364	
7.48488	 49.552912	
7.51815	 49.547146	
7.55141	 49.544763	
7.58468	 49.552427	
7.61794	 49.554786	
7.65121	 49.564070	
7.68448	 49.572825	
7.71774	 49.582881	
7.75101	 49.588055	
7.78427	 49.593106	
7.81754	 49.602290	
7.85081	 49.598813	
7.88407	 49.615574	
7.91734	 49.622831	
7.9506	 49.620772	
7.98387	 49.617517	
8.01714	 49.619421	
8.0504	 49.621353	
8.08367	 49.620999	
8.11694	 49.624076	
8.1502	 49.625716	
8.18347	 49.624779	
8.21673	 49.631103	
8.25	 49.638405	
8.28327	 49.649911	
8.31653	 49.653862	
8.3498	 49.632035	
8.38306	 49.639136	
8.41633	 49.637658	
8.4496	 49.631283	
8.48286	 49.638353	
8.51613	 49.637611	
8.5494	 49.647692	
8.58266	 49.645695	
8.61593	 49.635945	
8.64919	 49.636099	
8.68246	 49.638662	
8.71573	 49.644437	
8.74899	 49.647341	
8.78226	 49.633623	
8.81552	 49.629332	
8.84879	 49.632876	
8.88206	 49.628411	
8.91532	 49.629683	
8.94859	 49.627339	
8.98185	 49.609837	
9.01512	 49.613036	
9.04839	 49.603579	
9.08165	 49.594505	
9.11492	 49.592338	
9.14819	 49.595860	
9.18145	 49.613686	
9.21472	 49.614115	
9.24798	 49.641737	
9.28125	 49.665795	
9.31452	 49.666563	
9.34778	 49.694029	
9.38105	 49.693611	
9.41431	 49.691254	
9.44758	 49.665462	
9.48085	 49.687479	
9.51411	 49.652357	
9.54738	 49.666007	
9.58065	 49.653884	
9.61391	 49.658088	
9.64718	 49.633917	
9.68044	 49.658403	
9.71371	 49.669945	
9.74698	 49.674718	
9.78024	 49.669243	
9.81351	 49.608647	
9.84677	 49.609942	
9.88004	 49.604601	
9.91331	 49.607761	
9.94657	 49.601991	
9.97984	 49.600473	
10.0131	 49.635754	
10.0464	 49.615115	
10.0796	 49.621078	
10.1129	 49.613778	
10.1462	 49.601777	
10.1794	 49.612610	
10.2127	 49.608191	
10.246	 49.641374	
10.2792	 49.666241	
10.3125	 49.619445	
10.3458	 49.638340	
10.379	 49.633760	
10.4123	 49.632847	
10.4456	 49.628230	
10.4788	 49.619748	
10.5121	 49.625550	
10.5454	 49.597328	
10.5786	 49.627086	
10.6119	 49.571517	
10.6452	 49.585079	
10.6784	 49.530136	
10.7117	 49.507585	
10.745	 49.507201	
10.7782	 49.494543	
10.8115	 49.494434	
10.8448	 49.483840	
10.878	 49.484609	
10.9113	 49.512057	
10.9446	 49.510476	
10.9778	 49.486760	
11.0111	 49.486659	
11.0444	 49.480651	
11.0776	 49.483134	
11.1109	 49.484040	
11.1442	 49.483562	
11.1774	 49.475084	
11.2107	 49.479327	
11.244	 49.471569	
11.2772	 49.478812	
11.3105	 49.476859	
11.3437	 49.469785	
11.377	 49.475497	
11.4103	 49.476069	
11.4435	 49.492371	
11.4768	 49.505722	
11.5101	 49.519958	
11.5433	 49.525310	
11.5766	 49.520592	
11.6099	 49.535082	
11.6431	 49.527362	
11.6764	 49.522583	
11.7097	 49.546562	
11.7429	 49.533115	
11.7762	 49.538016	
11.8095	 49.528584	
11.8427	 49.524013	
11.876	 49.525268	
11.9093	 49.536155	
11.9425	 49.545613	
11.9758	 49.555904	
12.0091	 49.539489	
12.0423	 49.527890	
12.0756	 49.509255	
12.1089	 49.491525	
12.1421	 49.500148	
12.1754	 49.484439	
12.2087	 49.485197	
12.2419	 49.497118	
12.2752	 49.482660	
12.3085	 49.487551	
12.3417	 49.486835	
12.375	 49.484209	
12.4083	 49.485691	
12.4415	 49.487149	
12.4748	 49.488350	
12.5081	 49.476764	
12.5413	 49.482818	
12.5746	 49.481425	
12.6079	 49.482227	
12.6411	 49.491665	
12.6744	 49.476888	
12.7077	 49.507310	
12.7409	 49.513722	
12.7742	 49.520624	
12.8075	 49.515850	
12.8407	 49.504998	
12.874	 49.505302	
12.9073	 49.509674	
12.9405	 49.508655	
12.9738	 49.506988	
13.0071	 49.514981	
13.0403	 49.518135	
13.0736	 49.507752	
13.1069	 49.503170	
13.1401	 49.498272	
13.1734	 49.508180	
13.2067	 49.509901	
13.2399	 49.507664	
13.2732	 49.504845	
13.3065	 49.503797	
13.3397	 49.499368	
13.373	 49.491897	
13.4062	 49.485517	
13.4395	 49.500299	
13.4728	 49.479767	
13.506	 49.492152	
13.5393	 49.494835	
13.5726	 49.502331	
13.6058	 49.511630	
13.6391	 49.521504	
13.6724	 49.517709	
13.7056	 49.523352	
13.7389	 49.519832	
13.7722	 49.504289	
13.8054	 49.502768	
13.8387	 49.506262	
13.872	 49.499981	
13.9052	 49.499079	
13.9385	 49.503860	
13.9718	 49.504684	
14.005	 49.494504	
14.0383	 49.498715	
14.0716	 49.490587	
14.1048	 49.505112	
14.1381	 49.516736	
14.1714	 49.516635	
14.2046	 49.524487	
14.2379	 49.531353	
14.2712	 49.527669	
14.3044	 49.537325	
14.3377	 49.532385	
14.371	 49.530125	
14.4042	 49.520364	
14.4375	 49.516947	
14.4708	 49.520400	
14.504	 49.519150	
14.5373	 49.524022	
14.5706	 49.524534	
14.6038	 49.510225	
14.6371	 49.503854	
14.6704	 49.507154	
14.7036	 49.499780	
14.7369	 49.492606	
14.7702	 49.486762	
14.8034	 49.492546	
14.8367	 49.493978	
14.87	 49.497659	
14.9032	 49.491823	
14.9365	 49.492265	
14.9698	 49.491739	
15.003	 49.491860	
15.0363	 49.489165	
15.0696	 49.490909	
15.1028	 49.499803	
15.1361	 49.519419	
15.1694	 49.514811	
15.2026	 49.521308	
15.2359	 49.529508	
15.2692	 49.532536	
15.3024	 49.537221	
15.3357	 49.534770	
15.369	 49.539656	
15.4022	 49.522836	
15.4355	 49.517702	
15.4687	 49.516261	
15.502	 49.506375	
15.5353	 49.504382	
15.5685	 49.496691	
15.6018	 49.501990	
15.6351	 49.490548	
15.6683	 49.498893	
15.7016	 49.482477	
15.7349	 49.482885	
15.7681	 49.494263	
15.8014	 49.496228	
15.8347	 49.489805	
15.8679	 49.493906	
15.9012	 49.488161	
15.9345	 49.483275	
15.9677	 49.485039	
16.001	 49.492900	
16.0343	 49.481786	
16.0675	 49.484454	
16.1008	 49.488085	
16.1341	 49.488770	
16.1673	 49.492432	
16.2006	 49.496236	
16.2339	 49.492697	
16.2671	 49.488149	
16.3004	 49.484359	
16.3337	 49.470256	
16.3669	 49.492077	
16.4002	 49.488848	
16.4335	 49.500108	
16.4667	 49.491051	
16.5	 49.459371	
16.5333	 49.473746	
16.5665	 49.454242	
16.5998	 49.457690	
16.6331	 49.455267	
16.6663	 49.451975	
16.6996	 49.446978	
16.7329	 49.460638	
16.7661	 49.442131	
16.7994	 49.446716	
16.8327	 49.442288	
16.8659	 49.446055	
16.8992	 49.454053	
16.9325	 49.455537	
16.9657	 49.448315	
16.999	 49.457102	
17.0323	 49.467954	
17.0655	 49.453110	
17.0988	 49.448806	
17.1321	 49.437256	
17.1653	 49.446766	
17.1986	 49.437226	
17.2319	 49.442517	
17.2651	 49.430549	
17.2984	 49.428513	
17.3317	 49.413749	
17.3649	 49.418115	
17.3982	 49.404042	
17.4315	 49.391507	
17.4647	 49.393241	
17.498	 49.390968	
17.5312	 49.392601	
17.5645	 49.383539	
17.5978	 49.380810	
17.631	 49.384848	
17.6643	 49.398627	
17.6976	 49.410228	
17.7308	 49.410680	
17.7641	 49.430181	
17.7974	 49.418509	
17.8306	 49.426104	
17.8639	 49.421626	
17.8972	 49.432789	
17.9304	 49.444958	
17.9637	 49.445551	
17.997	 49.449920	
18.0302	 49.472678	
18.0635	 49.471867	
18.0968	 49.480788	
18.13	 49.477112	
18.1633	 49.496566	
18.1966	 49.493637	
18.2298	 49.492919	
18.2631	 49.503309	
18.2964	 49.505222	
18.3296	 49.510294	
18.3629	 49.512842	
18.3962	 49.531007	
18.4294	 49.546780	
18.4627	 49.545251	
18.496	 49.547768	
18.5292	 49.539093	
18.5625	 49.540648	
18.5958	 49.555666	
18.629	 49.549246	
18.6623	 49.551162	
18.6956	 49.554315	
18.7288	 49.559291	
18.7621	 49.557774	
18.7954	 49.576019	
18.8286	 49.561864	
18.8619	 49.549392	
18.8952	 49.550122	
18.9284	 49.549837	
18.9617	 49.539425	
18.995	 49.538228	
19.0282	 49.533910	
19.0615	 49.541728	
19.0948	 49.527998	
19.128	 49.517680	
19.1613	 49.512343	
19.1946	 49.503189	
19.2278	 49.497947	
19.2611	 49.501129	
19.2944	 49.491311	
19.3276	 49.498381	
19.3609	 49.494716	
19.3942	 49.493686	
19.4274	 49.513316	
19.4607	 49.512217	
19.494	 49.524733	
19.5272	 49.530726	
19.5605	 49.529327	
19.5937	 49.507945	
19.627	 49.506482	
19.6603	 49.501129	
19.6935	 49.505904	
19.7268	 49.513475	
19.7601	 49.501420	
19.7933	 49.504636	
19.8266	 49.503958	
19.8599	 49.500860	
19.8931	 49.484845	
19.9264	 49.492147	
19.9597	 49.494353	
19.9929	 49.496454	
20.0262	 49.495532	
20.0595	 49.493742	
20.0927	 49.497328	
20.126	 49.498520	
20.1593	 49.497607	
20.1925	 49.501567	
20.2258	 49.515573	
20.2591	 49.521210	
20.2923	 49.526054	
20.3256	 49.522806	
20.3589	 49.515366	
20.3921	 49.527204	
20.4254	 49.510849	
20.4587	 49.514853	
20.4919	 49.504036	
20.5252	 49.503764	
20.5585	 49.506263	
20.5917	 49.510516	
20.625	 49.508720	
20.6583	 49.486338	
20.6915	 49.474704	
20.7248	 49.473397	
20.7581	 49.474149	
20.7913	 49.462396	
20.8246	 49.457937	
20.8579	 49.448316	
20.8911	 49.451231	
20.9244	 49.445746	
